<?xml version="1.0" encoding="utf-8"?>
<!-- Generator: Adobe Illustrator 24.0.0, SVG Export Plug-In . SVG Version: 6.00 Build 0)  -->
<svg version="1.1" id="Layer_1" xmlns:xodm="http://www.corel.com/coreldraw/odm/2003"
	 xmlns="http://www.w3.org/2000/svg" xmlns:xlink="http://www.w3.org/1999/xlink" x="0px" y="0px" viewBox="0 0 840 307.2"
	 style="enable-background:new 0 0 840 307.2;" xml:space="preserve">
<style type="text/css">
	.st0{fill-rule:evenodd;clip-rule:evenodd;fill:#2B2A29;}
	.st1{fill-rule:evenodd;clip-rule:evenodd;fill:#CDDC39;}
	.st2{fill-rule:evenodd;clip-rule:evenodd;fill:#FF9800;}
	.st3{fill-rule:evenodd;clip-rule:evenodd;fill:#483845;}
	.st4{fill-rule:evenodd;clip-rule:evenodd;fill:#E1DDDA;}
	.st5{fill-rule:evenodd;clip-rule:evenodd;fill:#FDFDFD;}
	.st6{fill-rule:evenodd;clip-rule:evenodd;fill:#0A0A0D;}
	.st7{fill-rule:evenodd;clip-rule:evenodd;}
	.st8{fill:#353535;}
</style>
<g id="Capa_x0020_1">
	<g id="_1911197116080">
		<g>
			<path class="st0" d="M228.5,86.7C228.5,86.7,228.5,86.7,228.5,86.7c0.5,0.4,0.9,0.8,1.3,1.2C229.3,87.5,228.9,87.1,228.5,86.7
				L228.5,86.7z M76.6,281.3c-0.3-0.2-0.6-0.5-0.9-0.7c-0.8-0.7-1.6-1.4-2.4-2.1c-0.2-0.1-0.3-0.3-0.5-0.4c-1-0.9-1.9-1.8-2.9-2.7
				c-0.1-0.1-0.3-0.3-0.4-0.4c-0.8-0.8-1.6-1.6-2.4-2.4c-0.2-0.2-0.4-0.4-0.6-0.6c-0.8-0.8-1.6-1.7-2.4-2.6
				c-0.1-0.1-0.2-0.2-0.3-0.3c-1.8-2-3.6-4.1-5.3-6.3c-0.1-0.1-0.2-0.2-0.3-0.3c-0.8-1-1.6-2.1-2.4-3.1c0,0-0.1-0.1-0.1-0.1
				c-14.3-19.5-23.4-43.2-25.5-66.6c-0.4-4.2-0.5-8-0.5-12.2c0.7-34.7,14.5-74.2,42.4-96.3C87.5,72.7,105,72,122.7,77.9
				c3,1,5.6,1.8,8,2.6c-2.1-1.4-4.2-3-6.4-4.7l-5-4c-0.1-0.1-0.2-0.1-0.2-0.2c0,0-0.1,0-0.1-0.1c-5.2-4.2-10.3-9.1-15-14.5
				C88.4,39,86.7,13,93.9,6.8c4.1-3.5,12-0.8,20.8,5.6c0,0,0,0,0.1,0.1c0.5,0.3,0.9,0.7,1.4,1c0,0,0.1,0.1,0.1,0.1
				c0.4,0.3,0.9,0.7,1.3,1c0.1,0,0.1,0.1,0.2,0.1c0,0,0.1,0,0.1,0.1l5,4c5.9,4.7,12.1,10.9,17.6,17.8c1.5,1.9,8.2,11.8,12.2,25.7
				c1.3-4.5,3-9.5,5.3-14.5c3.4-7.6,7.5-18.4,14.3-21.6c4.7-2.2,13.7,2.2,16.5,3.5c1.2,0.5,5.5,2.1,8.3,4.4l5,4
				c1.8,1.4,2.9,3.1,2.3,4.9c-1.9,5.8-16.4,13.8-22.1,21.5c-3.1,4.2-6.9,9.8-10.1,14.7c2-0.6,4.1-1.3,6.5-2
				c17.5-5.4,30.8-3.4,42.1,3.6c0,0,0,0,0.1,0c0.6,0.4,1.2,0.8,1.8,1.2c0.1,0,0.1,0.1,0.2,0.1c0.5,0.4,1.1,0.8,1.6,1.2
				c0.1,0,0.1,0.1,0.2,0.1c0.4,0.3,0.9,0.7,1.3,1l5,4c6.8,5.4,12.9,12.7,19,21.4c15.8,22.8,22.4,47.1,23,74.6
				c-0.6,48-25.7,94.7-70.2,115.2c-30.6,14.1-42.3-4.6-48.9-4.3c-6.1,0.3-16.7,16.6-43.7,6.4c-10-3.8-19.2-9.2-27.5-15.8l-5-4
				C77.2,281.8,76.9,281.5,76.6,281.3L76.6,281.3z"/>
		</g>
		<g>
			<path class="st0" d="M167.5,78.5c3.5-1.1,7-2.2,10.5-3.3c32-9.8,50.8,3.9,68.6,29.5c16.1,23.1,22.8,47.8,23.4,75.8l0,0l0,0
				c-0.6,48.8-26.2,96.2-71.5,117.1c-11.2,5.2-23.2,7.6-35.1,3.1c-3.5-1.3-6.5-3.1-9.7-4.9c-1.1-0.6-3.7-2.3-5-2.2
				c-1.2,0.1-3.6,1.6-4.6,2.2c-2.9,1.8-5.6,3.4-8.7,4.7c-10.4,4.4-20.9,3.2-31.3-0.7c-43.1-16.2-72-62.2-76.1-106.9
				c-0.4-4.1-0.5-8.2-0.6-12.3l0,0l0,0c0.7-35.4,14.8-75.4,43.2-97.9l0,0c14.8-11.1,31.6-12.6,48.7-7.8
				c-6.3-4.8-12.1-10.4-17.2-16.3C95.1,49.9,90,38.9,88.3,27.8c-1-6.5-1.3-17.8,4.2-22.6c5.7-4.9,15.2,0.1,20.5,3.4
				c9,5.8,17.5,14.3,24.1,22.6c0.8,1.1,1.6,2.3,2.4,3.4c1.3,2.1,2.5,4.3,3.6,6.5c3.3,6.4,5.9,13.3,7.6,20.3c0,0,0,0,0,0
				c1.4-5,3.3-10,5.3-14.5c3.3-7.4,7.6-19,15.4-22.6c5.3-2.4,13.5,1.2,18.3,3.5c0.8,0.4,1.6,0.7,2.4,1c1.3,0.6,2.7,1.2,3.9,2
				c3.1,1.8,6.7,4.9,5.4,8.9c-0.8,2.6-3.3,5-5.3,6.8c-2.6,2.4-5.5,4.6-8.2,6.8c-3,2.5-6.6,5.4-8.9,8.5c-2.1,2.9-4.2,5.9-6.2,8.9
				C171,73.3,169.3,75.9,167.5,78.5L167.5,78.5z"/>
		</g>
		<g>
			<path class="st1" d="M135.5,32.6c-14.9-18.5-34.3-32-41.5-25.7S88.4,39,104,57c13.9,16,32,28.2,41.9,26.9c2-0.3,2.4-0.7,3.8-1.8
				c2.3-1.7,1.4-10-1.1-20.2C144.8,46.1,137.1,34.6,135.5,32.6z"/>
			<path class="st1" d="M177.3,60.6c5.7-7.8,20.2-15.8,22.1-21.5c1.6-4.8-8.7-8.4-10.6-9.3c-2.8-1.3-11.8-5.7-16.5-3.5
				c-6.8,3.2-10.9,13.9-14.3,21.6c-7.2,16-9.5,31.5-5.8,34.1c1.7,1.2,1.9,4.4,4.6,4.5c1.1,0,1.5-2.9,3.2-1.2
				C160.5,85.6,170.7,69.7,177.3,60.6L177.3,60.6z"/>
			<path class="st1" d="M267.9,180.5c-0.6,48-25.7,94.7-70.2,115.2c-30.6,14.1-42.3-4.6-48.9-4.3c-6.1,0.3-16.7,16.6-43.7,6.4
				c-42.2-15.9-70.7-61.1-74.7-105.1c-0.4-4.2-0.5-8-0.5-12.2c0.7-34.7,14.5-74.2,42.4-96.3C87.5,72.7,105,72,122.7,77.9
				c28.3,9.4,27.7,8,55.9-0.6c31.1-9.5,48.9,3.9,66.3,28.7C260.7,128.7,267.4,153,267.9,180.5L267.9,180.5z"/>
		</g>
		<g>
			<path class="st0" d="M69.5,95.5h158.7c8.8,0,17.1,2,24.5,5.6c0,0,0,0,0,0c0.6,0.3,1.2,0.6,1.7,0.9l7.3,3.8
				c18,9.5,30.4,28.5,30.4,50.2v56.7c0,31.2-25.5,56.7-56.7,56.7H76.8c-9.5,0-18.4-2.4-26.3-6.5l-7.3-3.8c-0.1-0.1-0.3-0.2-0.4-0.2
				c-0.2-0.1-0.4-0.2-0.5-0.3c-0.6-0.3-1.3-0.7-1.9-1.1c-0.1-0.1-0.2-0.1-0.3-0.2c-0.7-0.4-1.4-0.9-2.1-1.4
				c-0.1-0.1-0.2-0.1-0.2-0.2c-0.7-0.5-1.3-0.9-2-1.4c-0.1,0-0.1-0.1-0.2-0.1c-1.4-1.1-2.8-2.2-4.1-3.4c0,0,0,0,0,0
				c-11.4-10.4-18.6-25.3-18.6-41.9v-56.7C12.8,121,38.3,95.5,69.5,95.5L69.5,95.5z"/>
		</g>
		<g>
			<path class="st0" d="M69.5,92.6h158.7c32.7,0,59.5,26.8,59.5,59.5v56.7c0,32.7-26.8,59.5-59.5,59.5H69.5
				c-32.7,0-59.5-26.8-59.5-59.5v-56.7C10,119.4,36.7,92.6,69.5,92.6z"/>
		</g>
		<path class="st2" d="M69.5,95.5h158.7c31.3,0,56.7,25.4,56.7,56.7v56.7c0,31.3-25.4,56.7-56.7,56.7H69.5
			c-31.3,0-56.7-25.4-56.7-56.7v-56.7C12.8,120.9,38.2,95.5,69.5,95.5z"/>
		<path class="st3" d="M48.9,129.5c-0.2-2.5-1.3-5.1-6-7.5c-4.7-2.4-10.5,4.1-9.3,7.5c1.2,3.4,2.7,6.7,6.2,7.5
			C43.3,137.8,49.2,132,48.9,129.5z"/>
		<path class="st4" d="M46.8,129.5c0.2-2.5-0.5-5.3-4.4-5.5s-7.6,3.2-6.9,5.5c0.7,2.4,2,4.9,4.6,5.6S46.6,132,46.8,129.5z"/>
		<g>
			<path class="st0" d="M148.9,78.5c-53.2,0-96.4,43.1-96.4,96.4c0,21.6,7.1,41.6,19.1,57.6c0,0,0,0,0.1,0.1c1.8,2.4,3.7,4.7,5.8,7
				c0.1,0.1,0.1,0.1,0.2,0.2c2,2.2,4.1,4.3,6.2,6.2c0.1,0.1,0.2,0.2,0.4,0.3c1.1,1,2.2,1.9,3.3,2.9c0,0,0,0,0.1,0
				c1.1,0.9,2.2,1.7,3.3,2.6c0.2,0.1,0.4,0.3,0.6,0.4c1.1,0.8,2.3,1.7,3.4,2.4c0.1,0.1,0.2,0.2,0.4,0.2c1,0.7,2.1,1.4,3.2,2
				c0.3,0.2,0.5,0.3,0.8,0.5c0.2,0.1,0.4,0.3,0.6,0.4l3.9,2.3c14.4,8.5,31.1,13.4,49,13.4c53.2,0,96.4-43.1,96.4-96.4
				c0-35.3-19-66.2-47.4-83l-3.9-2.3c-1-0.6-2-1.1-3-1.7c0,0-0.1,0-0.1,0C181.1,82.7,165.5,78.5,148.9,78.5L148.9,78.5z"/>
		</g>
		<g>
			<path class="st0" d="M148.9,274.1c-54.8,0-99.2-44.4-99.2-99.2s44.4-99.2,99.2-99.2s99.2,44.4,99.2,99.2S203.7,274.1,148.9,274.1
				L148.9,274.1z"/>
		</g>
		<circle class="st5" cx="148.9" cy="174.8" r="96.4"/>
		<circle class="st4" cx="148.9" cy="174.8" r="85"/>
		<circle class="st3" cx="148.9" cy="174.8" r="56.7"/>
		<path class="st6" d="M148.9,129.5c-25,0-45.4,20.3-45.4,45.4c0,12.1,4.8,17.8,12.5,20.5c3.7,1.3,12.5-16.1,10.2-20.5
			c-3.8-7,4.9-20.8,22.7-22.7c11.8-1.2,25.8,14.9,22.7,22.7c-1.8,4.4,1.8,22.4,5.7,21.6c10.4-2,17-7.3,17-21.6
			C194.2,149.8,173.9,129.5,148.9,129.5z"/>
		<path class="st6" d="M153.7,184.7c25.1-2.7,7.1-35.8-13.3-24.6c-10.5,5.7-13.5,23,3.5,24.7C147,185.1,150.5,185,153.7,184.7
			L153.7,184.7z"/>
		<path class="st3" d="M148.4,160.8c5.7-0.7,11.8,5.1,11.8,6.3c0,0.7-1.1-0.1-4-0.3c-1.6-0.1-3.4-0.9-5.3-0.9
			c-2.6,0-4.4,0.4-6.1,0.5c-1.9,0.2-5.4,1.8-5.4,1.2C139.4,166.5,142.6,161.5,148.4,160.8L148.4,160.8z"/>
		<path class="st5" d="M152.5,135.2c11,0,20.2,8.6,20.2,10.2c0,1.1-4,0.3-10.8-0.3c-3-0.3-7.8-1.5-10.7-1.5c-3.8,0-8.4,1.8-11.4,1.5
			c-5.6-0.5-10,0-10-1C129.7,142.6,141.6,135.2,152.5,135.2L152.5,135.2z"/>
	</g>
	<path class="st7" d="M356.8,194.8l27.1,0c5.1-0.1,8.1,2.7,8,7.8c-0.1,4.9-2.9,7.9-7.8,8.2l-0.1,0l-34.9-0.1l0,0
		c-5.4-0.2-7.2-4.8-7.3-9.6l0-63.3l0-0.1c0.6-4.4,3.4-6.9,7.9-6.8c4.4,0.1,7.2,2.7,7.2,7.1V194.8z M409.5,154.5
		c3.9-1.5,8.1-2.3,12.3-2.2c4.2,0.1,8.2,1.1,12,3c4.2,2.1,7.6,5.6,10.2,9.5c3.7,5.3,4.6,12.2,4.5,18.5c-0.1,6.7-1.5,13.5-5.9,18.7
		c-3,3.6-6.8,7.1-11.3,8.7c-3.4,1.2-7,1.9-10.6,1.9c-3.7,0-7.5-0.8-11.1-1.9c-4.8-1.5-8.6-4.8-11.7-8.7c-4.1-5.2-5.5-11.9-5.6-18.5
		c-0.1-6.8,1.3-13.7,5.4-19.3C400.7,160.3,404.6,156.4,409.5,154.5L409.5,154.5z M487.7,156.1c1.5-1.9,4.1-2.6,7-2.6
		c4,0,8.2,1.4,8.3,6.1l0,0.1v48.9c0,8.6-2.7,16.4-10.3,21c-6.6,4-13.8,5.3-21.3,4c-5.7-1-12.3-3-16-7.9c-2.9-3.9-3.6-8.3,0.6-11.5
		c3.4-2.6,7.2-2.7,10,0.8c1.8,2.3,5.4,3.4,8.1,4c3.7,0.8,7.1,0.4,10.3-1.7c2.5-1.6,3.3-5.4,3.4-9c-2.5,1.4-5.3,2.3-8,2.8
		c-6,1.1-11.7,0-16.9-3c-5.9-3.5-9.4-9.2-11.2-15.7c-2.1-7.6-1.4-15.3,1.1-22.8c2.8-8.3,8.4-13.6,16.9-15.6
		C476,152.5,482.3,152.8,487.7,156.1L487.7,156.1z M566.8,161.5l-12.6,30.3l0,0c-1.6,3.6-4.4,6.3-8.5,6.2c-4.1-0.2-6.5-2.8-7.5-6.6
		L526,161.2v43.7c0,4.5-3.4,6.4-7.5,6.4c-4.3,0-7.5-2.1-7.4-6.6v-64.8l0-0.2c1.2-6,5.5-8.8,11.5-8.8c5.8,0,10.2,2.7,11.6,8.4
		l12.2,31.4l13.8-32.1c1.6-5.3,5.7-7.8,11.2-7.7c5.9,0,9.6,3.2,10.4,9l0,0.2v64.9l0,0.1c-0.4,4.4-3.6,6.5-7.8,6.5
		c-4.4,0-7.4-2.3-7.4-6.8V161.5L566.8,161.5z M604.4,188.8c0.6,2,1.8,3.7,3.6,5.1c2.8,2.2,6.2,3,9.8,3c3.8,0,6.8-1.4,9.3-4.2
		c2.6-3.6,6.3-4.2,10.1-2c4.8,2.8,4.1,7.5,1.5,11.7l-0.1,0.1l-0.1,0.1c-2.6,3.1-5.7,5.7-9.4,7.4c-4.4,2-10,2.3-14.8,2.1
		c-6.8-0.3-12.7-3-17.7-7.5c-6-5.3-8.3-12.6-8.6-20.5c-0.3-8.2,1.9-15.9,7.2-22.2c5.1-6.1,11.7-9.3,19.6-9.5
		c7-0.2,13.8,1.4,19.3,5.8c6.4,5.1,8,14.1,8.2,21.9l0,0.1l0,0.1c-0.1,4.3-2.2,7.4-6.4,8.4l-0.3,0.1L604.4,188.8L604.4,188.8z
		 M698.7,159.3v46.2l0,0c-0.1,4.4-3.6,6-7.5,6.1c-3.8,0-7-1.5-7.4-5.3c-4.2,3.6-9.3,5.7-15.3,5.1c-7.2-0.7-13-4-17.2-9.9
		c-4.3-6-5.8-13-5.1-20.3c0.6-6.7,2.7-13.2,7.3-18.3c3.4-3.7,7.5-7,12.4-8.3c3.9-1,7.9-1.2,11.8-0.5c2.2,0.4,4.2,1.2,5.9,2.4
		c0.1-0.2,0.2-0.3,0.3-0.5c1.4-2.5,4.5-2.9,7.1-2.9c2.6,0,5.8,0.5,7.2,3.1C698.7,157.3,698.8,158.3,698.7,159.3z M721.9,188.7
		c0.2,3.3,1.2,6.2,4.6,7.2l0.3,0.1l0.3,0.2c4.2,2.5,5.9,6.5,3.3,10.9c-2.6,4.5-7.1,5-11.6,3.3l-0.1,0l-0.1,0
		c-8-3.5-12.7-9.6-12.5-18.4l0.1-53.1c-0.5-5.3,2.9-7.9,8-7.8c5,0.1,8.4,2.6,7.7,7.9L721.9,188.7L721.9,188.7z M420.3,166.6
		c-3.6,0.1-6.4,1.8-8.9,4.3c-3.1,3.2-4,7.6-4,11.9c0,4.1,0.9,8.4,4,11.3c2.6,2.4,5.5,3.7,9,3.6c3.5-0.1,6.5-1.4,9.2-3.7
		c3.2-2.8,3.9-7.4,3.8-11.4c0-4.4-1-8.9-4.2-12.1C426.7,168,423.8,166.5,420.3,166.6z M487,171.7c-3.7-3.3-8-4.6-13-3.5
		c-5.8,1.3-7.5,6.1-7.9,11.6c-0.3,5.2,0.3,11.3,4.7,14.8c4.2,3.3,11.4,1.3,16.2-0.6V171.7z M604.8,174.2h21.6
		c-0.7-2.8-2-5.3-4.9-6.5c-3.6-1.4-7.2-1.3-10.8,0C607.5,168.9,605.8,171.3,604.8,174.2L604.8,174.2z M683.4,187v-12.8
		c-1.5-2.1-3.4-3.8-5.8-4.9c-2.6-1.2-5.6-0.9-8.3-0.2c-3.7,1-5.8,4.3-7.2,7.7c-1.8,4.4-1.9,8.7-0.2,13.1c1.7,4.5,5.6,5.7,10.2,5.6
		C678.1,195.4,681.4,192.1,683.4,187L683.4,187z"/>
	<path class="st8" d="M349.6,133.5c-3.2-0.1-5,1.4-5.4,4.6v63.1c0.1,4.7,1.7,7.1,5,7.2l34.8,0.1c3.7-0.3,5.5-2.2,5.6-5.9
		c0.1-3.7-1.8-5.5-5.6-5.4h-29.5v-59C354.4,135.2,352.8,133.6,349.6,133.5L349.6,133.5z M410.3,156.8c-3.7,1.4-7.3,4.5-10.7,9.1
		c-3.4,4.6-5,10.6-4.9,17.8c0.1,7.2,1.8,12.9,5.1,17c3.3,4.1,6.8,6.7,10.5,7.9s7.2,1.8,10.3,1.8s6.4-0.6,9.8-1.8
		c3.4-1.2,6.8-3.9,10.3-8c3.5-4.1,5.2-9.8,5.3-17.2c0.1-7.4-1.3-13.1-4.1-17.1c-2.8-4.1-5.9-7-9.4-8.7c-3.4-1.7-7.1-2.7-10.9-2.7
		C417.9,154.7,414.1,155.4,410.3,156.8z M420.2,164.2c3.9-0.1,7.5,1.4,10.7,4.5c3.2,3.1,4.9,7.7,5,13.7c0.1,6-1.5,10.4-4.7,13.2
		c-3.2,2.8-6.7,4.2-10.7,4.3c-4,0.1-7.5-1.4-10.7-4.2c-3.2-2.9-4.8-7.3-4.8-13.1c0-5.8,1.5-10.3,4.6-13.5
		C412.8,166,416.3,164.3,420.2,164.2z M470.2,156.3c-7.6,1.8-12.6,6.4-15.2,14.1c-2.5,7.6-2.9,14.7-1,21.4c1.8,6.7,5.2,11.4,10,14.3
		c4.9,2.8,10,3.7,15.3,2.7c5.3-1,8.9-2.9,10.7-5.6c0.7,8.4-0.8,13.8-4.4,16.1c-3.6,2.4-7.6,3.1-12.1,2.1c-4.5-1-7.7-2.6-9.5-4.9
		c-1.8-2.3-4-2.4-6.7-0.4c-2.6,2-2.7,4.7-0.1,8.2c2.6,3.4,7.4,5.7,14.4,6.9c7.1,1.2,13.6,0,19.7-3.7c6.1-3.7,9.1-10,9.1-18.9v-48.9
		c-0.1-2.5-2-3.8-5.9-3.8c-3.9,0-5.8,1.4-5.7,4.1C484,155.7,477.8,154.5,470.2,156.3L470.2,156.3z M489.4,170.6v24.9
		c-9.2,3.9-15.9,4.2-20.1,0.9c-4.2-3.3-6.1-8.9-5.6-16.8c0.5-7.9,3.7-12.5,9.8-13.8C479.5,164.5,484.8,166.1,489.4,170.6z
		 M569.2,204.7v-55.3L552,190.8c-1.5,3.3-3.6,4.9-6.3,4.8c-2.7-0.1-4.5-1.8-5.3-4.9l-16.8-41.8v56.1c0,2.7-1.7,4-5.1,4
		c-3.4,0-5.1-1.4-5-4.2v-64.6c0.9-4.6,4-6.9,9.2-6.9c5.2,0,8.3,2.3,9.3,6.8l14.4,37l16.2-37.6c1.2-4.1,4.2-6.2,9-6.2
		c4.8,0,7.5,2.4,8.1,6.9v64.6c-0.3,2.9-2.1,4.3-5.4,4.3C570.9,209.1,569.2,207.7,569.2,204.7L569.2,204.7z M614.4,209.8
		c-5.9-0.2-11.3-2.5-16.2-6.9c-4.9-4.4-7.5-10.6-7.7-18.8s1.9-15,6.6-20.6c4.7-5.6,10.6-8.4,17.9-8.6c7.2-0.2,13.1,1.6,17.7,5.3
		c4.6,3.7,7,10.4,7.3,20c-0.1,3.3-1.6,5.4-4.6,6.1h-33.9c0.3,3.9,2,7,5.1,9.4c3,2.4,6.8,3.5,11.2,3.5c4.5,0,8.2-1.7,11.2-5.1
		c1.8-2.6,4.2-3.1,7.1-1.4c2.9,1.7,3.1,4.4,0.6,8.3c-2.5,3-5.3,5.3-8.5,6.8C624.9,209.4,620.3,210,614.4,209.8L614.4,209.8z
		 M609.8,165.5c-4.3,1.5-7,5.2-8.1,11.1h27.5c-0.6-5.9-2.9-9.6-6.9-11.1C618.3,164,614.2,164,609.8,165.5z M690.9,155.7
		c3.9,0,5.7,1.2,5.4,3.4v46.3c-0.1,2.5-1.8,3.7-5.1,3.7c-3.4,0-5-1.3-5-3.9v-5c-5.1,6.4-10.9,9.3-17.5,8.6
		c-6.6-0.6-11.7-3.6-15.5-8.9c-3.8-5.3-5.3-11.5-4.6-18.6c0.7-7.1,2.9-12.7,6.6-16.8c3.8-4.1,7.5-6.6,11.3-7.6
		c3.7-0.9,7.3-1.1,10.8-0.4c3.5,0.6,6.3,2.5,8.4,5.5v-2.9C685.3,156.8,687.1,155.7,690.9,155.7L690.9,155.7z M678.6,167.1
		c-2.8-1.3-6.1-1.4-9.9-0.3c-3.8,1.1-6.7,4.1-8.8,9.1c-2,5-2.1,10-0.2,14.9c1.9,4.9,6.1,7.3,12.5,7.1c6.4-0.1,11-3.6,13.6-10.5v-14
		C683.8,170.5,681.4,168.4,678.6,167.1L678.6,167.1z M719.5,188.7c0.3,5.2,2.5,8.3,6.4,9.4c3.4,2.1,4.2,4.6,2.5,7.6
		c-1.7,3-4.6,3.8-8.7,2.3c-7.5-3.3-11.2-8.7-11.1-16.2l0.1-53.2c-0.4-3.6,1.4-5.4,5.5-5.3s5.9,1.8,5.3,5.3L719.5,188.7L719.5,188.7z
		"/>
</g>
</svg>
